# xmcd
#
# Track frame offsets:
#	150
#	11100
#	20100
#	36300
#	43350
#	57975
#	67650
#	80025
#	87900
#	100575
#	111450
#	119325
#	130800
#
# Disc length: 1881 seconds
#
# Revision: 1
# Processed by: cddbd v1.5.2PL0 Copyright (c) Steve Scherf et al.
# Submitted via: audiograbber 1.83.01
#
DISCID=b407570d
DTITLE=Gloomster - Randkultur
DYEAR=2011
DGENRE=Hardcore
TTITLE0=Zvilcourage
TTITLE1=Volles Glas - Leerer Kopf
TTITLE2=Füchse im Vollwichs
TTITLE3=Karoshi
TTITLE4=Virus
TTITLE5=Still representing your Arschgesicht
TTITLE6=Last Action Hardcore Hero
TTITLE7=Stop The Krauts
TTITLE8=Neuanfang
TTITLE9=Stock im Arsch
TTITLE10=Abgefuckte Pfaffen
TTITLE11=Mörderagentur
TTITLE12=Staatsgewalt
EXTD=
EXTT0=
EXTT1=
EXTT2=
EXTT3=
EXTT4=
EXTT5=
EXTT6=
EXTT7=
EXTT8=
EXTT9=
EXTT10=
EXTT11=
EXTT12=
PLAYORDER=
